<svg id="SvgjsSvg1001" width="288" height="288" xmlns="http://www.w3.org/2000/svg" version="1.1" xmlns:xlink="http://www.w3.org/1999/xlink" xmlns:svgjs="http://svgjs.com/svgjs"><defs id="SvgjsDefs1002"></defs><g id="SvgjsG1008"><svg xmlns="http://www.w3.org/2000/svg" viewBox="0 0 32 32" width="288" height="288"><path fill="#005cbb" d="M3 11v6c0 .6.4 1 1 1h6c.6 0 1-.4 1-1v-6c0-.6-.4-1-1-1 .6 0 1-.4 1-1 0 .6.4 1 1 1h6c.6 0 1-.4 1-1V3c0-.6-.4-1-1-1h-6c-.6 0-1 .4-1 1 0-.6-.4-1-1-1H4c-.6 0-1 .4-1 1v6c0 .6.4 1 1 1-.6 0-1 .4-1 1z" class="colorF7CE25 svgShape"></path><path fill="#fed600" d="M21 23c0-.6-.4-1-1-1h-6c-.6 0-1 .4-1 1v6c0 .6.4 1 1 1h6c.6 0 1-.4 1-1 0 .6.4 1 1 1h6c.6 0 1-.4 1-1v-6c0-.6-.4-1-1-1 .6 0 1-.4 1-1v-6c0-.6-.4-1-1-1 .6 0 1-.4 1-1V7c0-.6-.4-1-1-1h-6c-.6 0-1 .4-1 1v6c0 .6.4 1 1 1-.6 0-1 .4-1 1v6c0 .6.4 1 1 1-.6 0-1 .4-1 1z" class="color3DBEB3 svgShape"></path></svg></g></svg>